<?xml version="1.0" encoding="UTF-8" standalone="no"?>
<!-- Created with Inkscape (http://www.inkscape.org/) -->

<svg
   xmlns:dc="http://purl.org/dc/elements/1.1/"
   xmlns:cc="http://creativecommons.org/ns#"
   xmlns:rdf="http://www.w3.org/1999/02/22-rdf-syntax-ns#"
   xmlns:svg="http://www.w3.org/2000/svg"
   xmlns="http://www.w3.org/2000/svg"
   xmlns:sodipodi="http://sodipodi.sourceforge.net/DTD/sodipodi-0.dtd"
   xmlns:inkscape="http://www.inkscape.org/namespaces/inkscape"
   width="387.00891mm"
   height="52.916691mm"
   viewBox="0 0 387.00891 52.916691"
   version="1.1"
   id="svg8876"
   inkscape:version="0.92.1 r15371"
   sodipodi:docname="a.svg">
  <defs
     id="defs8870" />
  <sodipodi:namedview
     id="base"
     pagecolor="#ffffff"
     bordercolor="#666666"
     borderopacity="1.0"
     inkscape:pageopacity="0.0"
     inkscape:pageshadow="2"
     inkscape:zoom="0.35"
     inkscape:cx="731.35539"
     inkscape:cy="100.00009"
     inkscape:document-units="mm"
     inkscape:current-layer="layer1"
     showgrid="false"
     fit-margin-top="0"
     fit-margin-left="0"
     fit-margin-right="0"
     fit-margin-bottom="0"
     inkscape:window-width="1920"
     inkscape:window-height="1001"
     inkscape:window-x="-9"
     inkscape:window-y="-9"
     inkscape:window-maximized="1" />
  <metadata
     id="metadata8873">
    <rdf:RDF>
      <cc:Work
         rdf:about="">
        <dc:format>image/svg+xml</dc:format>
        <dc:type
           rdf:resource="http://purl.org/dc/dcmitype/StillImage" />
        <dc:title></dc:title>
      </cc:Work>
    </rdf:RDF>
  </metadata>
  <g
     inkscape:label="Ebene 1"
     inkscape:groupmode="layer"
     id="layer1"
     transform="translate(297.82588,-122.375)">
    <path
       inkscape:connector-curvature="0"
       id="path12350"
       d="m -132.15278,140.07372 1.96784,-1.31583 -4.55225,-2.95058 -4.55462,2.95058 1.81193,1.21188 v 15.84902 l -1.67964,1.08904 5.19954,3.47738 4.51682,-2.92695 -2.70962,-1.81429 v -15.57025"
       style="fill:#211e1e;fill-opacity:1;fill-rule:nonzero;stroke:none;stroke-width:0.60476184" />
    <path
       inkscape:connector-curvature="0"
       id="path12352"
       d="m -103.97229,139.27051 0.84571,-0.61893 2.45213,5.06252 c 0.45121,0.97801 0.47719,2.13556 -0.88588,3.14901 l -2.41196,1.59931 z m 2.42377,17.77906 -2.42377,-1.66546 v -6.02871 l 9.522631,-6.0429 -4.37271,-8.78559 -5.801931,3.76559 h -5.82084 v 0.64729 l 1.14811,0.7654 v 15.68601 l -1.75051,1.16937 5.71926,3.82464 8.029631,-5.2019 -0.4205,-0.61421 -3.829371,2.48047"
       style="fill:#211e1e;fill-opacity:1;fill-rule:nonzero;stroke:none;stroke-width:0.60476184" />
    <path
       inkscape:connector-curvature="0"
       id="path12354"
       d="m -52.253339,139.27051 0.84572,-0.61893 2.45212,5.06252 c 0.45121,0.97801 0.4772,2.13556 -0.88588,3.14901 l -2.41196,1.59931 z m 2.42377,17.77906 -2.42377,-1.66546 v -6.02871 l 9.52263,-6.0429 -4.37507,-8.78559 -5.79957,3.76559 h -5.82084 v 0.64729 l 1.14574,0.7654 v 15.68601 l -1.74813,1.16937 5.71688,3.82464 8.02964,-5.2019 -0.41814,-0.61421 -3.82937,2.48047"
       style="fill:#211e1e;fill-opacity:1;fill-rule:nonzero;stroke:none;stroke-width:0.60476184" />
    <path
       inkscape:connector-curvature="0"
       id="path12356"
       d="m -78.038399,139.19728 1.44575,-0.93785 -4.8121,-3.21989 -5.95549,3.8719 v -1.61821 l -3.38288,-2.2655 -4.37744,2.83719 2.43321,1.7883 v 16.66638 l -1.69144,1.09613 4.41996,3.02381 4.41996,-3.02381 -1.82137,-1.17881 v -15.94823 l 2.72379,-1.76231 1.26386,0.84336 v 18.71454 l 3.501,2.34345 4.55225,-2.94821 -2.71434,-1.81665 -0.005,-16.46559"
       style="fill:#211e1e;fill-opacity:1;fill-rule:nonzero;stroke:none;stroke-width:0.60476184" />
    <path
       inkscape:connector-curvature="0"
       id="path12358"
       d="m -178.6533,134.99938 -5.21371,3.38998 -4.40342,-2.94585 -4.18136,2.70962 3.03325,2.22769 v 16.07344 l -1.45521,0.97328 4.42233,2.95767 4.55225,-2.94821 -2.19226,-1.46702 v -16.05454 l 1.45756,-0.94494 2.50647,2.6789 c 0.7276,0.80556 1.10085,1.90406 0.10393,3.26241 l -0.28348,0.39924 0.64256,0.4394 4.82392,-6.66656 -3.81283,-4.08451"
       style="fill:#211e1e;fill-opacity:1;fill-rule:nonzero;stroke:none;stroke-width:0.60476184" />
    <path
       inkscape:connector-curvature="0"
       id="path12360"
       d="m -206.32352,128.99429 c 0.36145,-0.23151 1.98438,-1.28512 3.14665,-2.03871 l 2.80648,1.81901 v 31.39092 c -0.0638,0.0425 -0.12521,0.0827 -0.18427,0.12048 -1.44812,-1.41505 -2.9364,-2.44267 -4.2853,-3.14428 -0.48901,-0.25514 -0.9851,-0.47956 -1.48356,-0.69454 z m 4.36326,-2.82773 0.0165,0.002 -0.15355,0.0898 c 0.0874,-0.0591 0.13701,-0.0921 0.13701,-0.0921 z m 8.60133,30.70347 c -0.15829,-1.18353 -0.189,-2.39779 -0.189,-3.35926 v -27.95606 l -3.38525,-2.2277 -0.0402,0.0213 -1.004,-0.64492 -8.34619,5.40506 V 122.375 h -0.83391 v 33.73438 c -0.63311,-0.2386 -1.27094,-0.44649 -1.90642,-0.62367 v -25.26062 c 0,-3.22933 -1.14573,-5.40269 -3.09231,-6.48229 -1.06779,-0.66145 -2.46394,-1.07014 -4.18609,-1.07014 -2.26549,-0.0118 -4.73179,0.89533 -6.81538,2.91514 -1.10558,1.004 -1.93949,2.32692 -2.35527,3.78213 l 0.14883,0.0827 c 0.89061,-1.83791 2.74033,-3.10413 4.57588,-3.5766 2.65764,-0.69217 4.8499,0.33782 4.8877,3.0309 v 8.3013 c -3.10649,0.64019 -4.81447,3.13248 -4.58769,5.32238 0.51736,-0.63312 1.2615,-1.07015 2.00564,-1.2615 1.39142,-0.3638 2.54189,0.17717 2.5608,1.5875 l 0.0213,-0.0614 v 0.92367 c -3.1065,0.63784 -4.81448,3.13248 -4.58769,5.32238 0.51735,-0.63311 1.26149,-1.0725 2.00563,-1.26386 1.39143,-0.36379 2.5419,0.17718 2.5608,1.58987 l 0.0213,-0.0638 v 5.55153 c -0.87643,0.0968 -1.72688,0.25985 -2.53717,0.49137 -3.91205,1.17408 -6.65001,4.07505 -7.25477,6.97366 -0.63311,3.20334 1.40087,5.01763 3.74196,5.04362 1.72452,0.0213 3.69708,-0.8788 5.15701,-2.75214 l -0.51263,-0.4016 c -1.17173,1.51899 -3.30729,2.81592 -4.91133,2.48047 -0.3449,-0.0732 -0.65673,-0.18427 -0.92367,-0.37089 -1.15283,-0.82446 -1.00637,-2.74033 0.16772,-3.92623 1.47647,-1.47411 4.13648,-2.53481 7.07288,-2.51118 v 15.40961 l 6.82247,-4.41995 v -7.30439 c 0,-0.5717 -0.0402,-1.27567 -0.32364,-2.06706 0.80792,0.45121 1.56624,1.01817 2.24423,1.70089 v 6.4256 l 0.83391,-0.54098 v -4.09631 c 0,-0.26223 -0.0354,-0.60477 -0.0969,-0.95676 0.22443,0.28112 0.43467,0.57878 0.63075,0.8906 l 12.43069,-8.05325"
       style="fill:#211e1e;fill-opacity:1;fill-rule:nonzero;stroke:none;stroke-width:0.60476184" />
    <path
       inkscape:connector-curvature="0"
       id="path12362"
       d="m -165.60367,157.32361 -4.16955,-2.7923 v -15.37183 l 1.08195,-0.70161 3.0876,2.06705 z m 0.489,-22.56282 -9.99983,6.63348 v 15.6553 l 6.0051,3.74669 8.83283,-5.72398 v -17.07271 l -4.8381,-3.23878"
       style="fill:#211e1e;fill-opacity:1;fill-rule:nonzero;stroke:none;stroke-width:0.60476184" />
    <path
       inkscape:connector-curvature="0"
       id="path12364"
       d="m -149.38377,138.75789 1.80956,1.21188 v 16.90735 l -0.90242,0.58823 -3.07341,-2.05761 v -16.39708 l 1.04888,-0.70871 -1.80012,-1.28984 c -1.69144,-1.20952 -2.30092,-2.63639 -0.64964,-4.90897 l 0.16536,-0.22442 -0.61893,-0.42759 -5.35073,7.36109 1.8639,1.35599 v 16.47267 l -1.08668,0.72525 v 0.64728 h 1.21661 l 4.70816,3.14901 9.80612,-6.35472 v -14.73398 l 1.96784,-1.31583 -4.55225,-2.95058 -4.55225,2.95058"
       style="fill:#211e1e;fill-opacity:1;fill-rule:nonzero;stroke:none;stroke-width:0.60476184" />
    <path
       inkscape:connector-curvature="0"
       id="path12366"
       d="m -118.50075,156.43063 -0.64965,0.42286 -3.32619,-2.22769 v -14.94659 l 3.13011,-2.08833 0.84573,1.20481 z m 5.3271,-1.25677 v -17.68219 l -6.68545,-9.51792 -5.91297,3.84591 0.43939,0.64256 1.64656,-1.05125 3.67346,5.23261 c 0,0 -5.03653,3.26477 -7.80521,5.0578 v 15.44033 l 4.8381,3.23877 5.91769,-3.83646 h 4.97511 v -0.64491 l -1.08668,-0.72525"
       style="fill:#211e1e;fill-opacity:1;fill-rule:nonzero;stroke:none;stroke-width:0.60476184" />
    <path
       style="clip-rule:nonzero;fill:#211e1e;fill-opacity:1;fill-rule:nonzero;stroke:none;stroke-width:0.60476184"
       d="m -268.85022,161.58292 c -1.10322,0.40396 -2.36472,0.66619 -3.79631,0.72052 -1.66781,-0.0236 -3.21752,-0.3827 -4.62548,-0.99692 l 6.4067,-4.15065 v -24.56136 l 0.10867,-0.005 c 0.6213,0.0969 1.25677,0.16773 1.90642,0.20317 z m 0.78429,-0.326 v -28.52775 l 9.30294,-8.27768 -0.5079,-0.54334 c -1.00164,0.64728 -1.75759,1.13156 -1.75759,1.13156 -1.17882,0.73705 -2.56787,1.20008 -4.22153,1.20717 -1.67254,0.0284 -3.53407,-0.30475 -5.50663,-0.73233 l -0.78667,-0.17246 c -0.87171,-0.19371 -1.75995,-0.4016 -2.66473,-0.59531 l -4.26168,-0.90478 c -4.76486,-0.99455 -11.40307,-0.8221 -15.6553,2.18518 -1.92059,1.33945 -3.21044,3.175 -3.59077,5.00582 -0.59532,3.01436 1.31583,4.71998 3.51754,4.74596 1.62293,0.0189 3.47974,-0.82919 4.85227,-2.5915 l -0.48192,-0.37561 c -1.10086,1.42922 -3.11122,2.64583 -4.62076,2.334 -0.32365,-0.0685 -0.61658,-0.17481 -0.86699,-0.35199 -0.18898,-0.13466 -0.34254,-0.30002 -0.45829,-0.489 -0.63311,-1.00401 -0.3638,-2.19699 0.61893,-3.19863 1.24733,-1.24732 3.38998,-2.18518 5.81847,-2.34581 1.87335,-0.15828 3.9286,0.0472 6.15157,0.50081 1.92531,0.39215 3.97583,0.97093 6.14683,1.65837 0.678,0.21261 1.44104,0.4583 2.18991,0.68982 l 1.99382,0.60476 -6.38543,4.13883 0.42286,0.6213 0.0803,-0.052 c 0.13938,-0.0898 0.31182,-0.14646 0.48664,-0.1441 0.64965,0 0.94494,0.9284 0.94494,1.9324 l 0.002,2.82065 c -2.89152,0.61658 -4.47665,2.94822 -4.2664,4.99637 0.48664,-0.59531 1.18826,-1.00872 1.88515,-1.18826 1.20244,-0.31419 2.21116,0.0921 2.38362,1.18826 v 1.12685 c -2.89152,0.61421 -4.47902,2.94821 -4.26877,4.99636 0.48664,-0.5953 1.18826,-1.00871 1.88515,-1.18589 1.21189,-0.31892 2.22534,0.0945 2.38834,1.20716 l 0.0118,8.62967 c -2.51829,-1.10086 -4.56881,-3.02617 -5.96732,-5.37671 -4.51446,-8.14539 -1.0985,-18.37201 5.53735,-24.10307 l -0.52208,-0.73942 -3.44431,2.16392 c -12.73544,7.94459 -13.23389,21.65094 -6.0925,28.27025 0.22678,0.21025 0.45357,0.40869 0.68271,0.60476 2.04344,1.72452 4.55934,3.0309 7.28314,3.73488 1.30401,0.29293 2.56315,0.40869 3.74905,0.40869 6.24841,-0.0118 10.8928,-4.09396 12.1283,-7.0965 l -0.69217,-0.47247 c -0.83154,0.96856 -1.97492,1.88987 -3.4443,2.56078 z m 28.57028,-21.98877 0.84808,-0.61657 2.44976,5.06252 c 0.45121,0.97801 0.47719,2.13556 -0.88352,3.14901 l -2.41432,1.59931 z m 2.42613,17.78142 -2.42613,-1.66546 v -6.02871 l 9.52264,-6.0429 -4.37272,-8.78559 -5.80193,3.76559 h -5.82084 v 0.64492 l 1.14575,0.76777 v 15.68601 l -1.74814,1.16937 5.71689,3.82464 8.03199,-5.2019 -0.4205,-0.61421 z m -14.6513,-22.01003 -5.99328,3.89788 v -13.89771 l -5.32711,4.35381 v 25.9339 l -2.43795,1.58041 5.08851,3.47738 5.08614,-3.47738 -2.40959,-1.56388 v -15.02927 l 2.76158,-1.79066 1.25441,0.84099 0.007,22.33131 c -0.002,0.7843 -0.37088,1.81428 -1.11975,2.84426 l -0.1819,0.24805 0.61657,0.42759 6.02636,-8.30839 -0.007,-17.71055 1.44576,-0.93785 -4.80975,-3.21989"
       id="path12368"
       inkscape:connector-curvature="0" />
    <path
       inkscape:connector-curvature="0"
       id="path12372"
       d="m -131.50786,131.22671 -3.20571,3.20335 -3.20572,-3.20335 3.20572,-3.20807 3.20571,3.20807"
       style="fill:#211e1e;fill-opacity:1;fill-rule:nonzero;stroke:none;stroke-width:0.60476184" />
    <path
       inkscape:connector-curvature="0"
       id="path12374"
       d="m -22.508979,131.58343 c 0.33546,0.68744 0.53152,1.5308 0.53152,2.54897 v 25.87247 c 0,3.1254 -0.55986,5.34128 -1.58512,6.7327 l -0.37089,-0.24568 v -36.19595 c 2.10013,-0.23623 3.57896,-1.22606 4.61838,-1.90878 l 4.99639,-3.25296 -0.43704,-0.64019 -0.46776,0.29766 c -2.36233,1.49773 -6.52481,2.30801 -10.11322,0.50318 -2.96711,-1.44576 -5.74759,-1.97257 -8.56824,-1.67491 -3.40887,0.30002 -6.31456,1.9891 -7.46503,4.39161 -1.02763,2.09777 -0.90478,4.69872 0.54806,6.22007 0.72052,0.79848 1.77649,1.22606 2.90333,1.23788 0.61658,0.009 1.26386,-0.10395 1.90642,-0.3331 l -0.22442,-0.57877 c -0.1323,0.0496 -0.26459,0.0969 -0.39924,0.13465 -1.66309,0.47483 -2.93876,-0.40632 -3.30965,-1.51663 -0.60713,-1.98437 1.24969,-4.33255 4.86172,-4.64202 1.71034,-0.14883 3.79631,0.10631 5.54915,0.7087 1.81194,0.63075 3.36399,1.11267 4.69873,1.10794 0.0212,-0.002 0.0449,-0.002 0.0685,-0.005 v 9.06198 c -3.10176,0.6402 -4.80266,3.13248 -4.57824,5.32001 0.51737,-0.6331 1.26386,-1.07014 2.00565,-1.26149 1.39141,-0.36381 2.54187,0.17717 2.56315,1.5875 l 0.01,-0.0307 v 0.89297 c -3.10176,0.6402 -4.80266,3.13248 -4.57824,5.32002 0.51736,-0.63075 1.26386,-1.07015 2.00565,-1.2615 1.39141,-0.3638 2.54187,0.17717 2.56315,1.58986 l 0.01,-0.0307 v 14.39853 l -4.60422,-3.08051 c -1.92061,-1.2615 -5.9177,-2.44976 -9.02419,-1.04179 -0.19844,0.0803 -0.38742,0.17481 -0.56933,0.27639 -1.74341,0.9662 -2.81356,2.80412 -2.13084,4.47193 0.0354,0.0874 0.0732,0.17481 0.11812,0.25986 0.19135,0.44176 0.5268,0.77721 1.00872,1.0418 l 0.2764,-0.26459 c -0.54334,-0.29293 -0.77722,-0.80792 -0.77958,-1.26858 -0.002,-0.35907 0.15355,-0.71579 0.43703,-0.98746 0.57642,-0.48901 1.73161,-0.49373 2.74978,0.15119 l 8.23752,5.50428 7.95878,-5.14993 c 6.14209,-4.10813 5.94839,-9.7943 5.94839,-12.9693 V 130.0383 c 0,-1.50246 0.71342,-2.65764 1.71034,-3.39942 l -0.44413,-0.64965 z m 55.2105,6.52953 -3.99236,-2.66945 -4.18136,2.70962 3.03088,2.22769 v 16.07344 l -1.45521,0.97328 4.42232,2.95767 4.55229,-2.94821 -2.19228,-1.46702 v -16.05454 l 0.0897,-0.59767 0.53626,-0.34727 2.50645,2.6789 c 0.72525,0.80556 1.09853,1.90406 0.10398,3.26241 l -0.28585,0.39924 0.64254,0.44176 4.82391,-6.66892 -3.81281,-4.08451 z m 25.59608,1.08432 1.44579,-0.93785 -4.81214,-3.21989 -5.95312,3.8719 v -1.61821 l -3.38291,-2.2655 -4.3774,2.83719 2.43321,2.30565 v 16.14903 l -1.69378,1.09613 4.4223,3.02145 4.41759,-3.02145 -1.81901,-1.17881 v -15.94587 l 2.72378,-1.76467 1.2615,0.84336 v 18.71454 l 3.50338,2.34345 4.55223,-2.94821 -2.71433,-1.81665 z m 28.17344,16.44669 v -25.46614 l -3.50337,-2.34345 -4.55229,2.94821 2.72854,1.8261 v 23.2101 l -1.67966,1.08904 5.19957,3.47738 4.51919,-2.92695 z m -64.60797,-16.364 1.45283,-0.97329 -4.4223,-2.96003 -4.55226,2.95058 2.19461,1.46702 v 15.72144 l -2.13082,1.37962 -1.84738,-1.23787 v -17.93261 l -3.5128196,-2.34818 -4.54988,2.95058 2.71198,1.81665 0.01,15.8561 -1.44812,0.93549 5.2656796,3.52226 5.01764,-3.25531 4.6609,3.1183 4.18137,-2.70962 -3.03088,-2.23006 v -16.07107"
       style="fill:#211e1e;fill-opacity:1;fill-rule:nonzero;stroke:none;stroke-width:0.60476184" />
    <path
       inkscape:connector-curvature="0"
       id="path12376"
       d="m 71.028321,146.78279 -3.99706,-1.73396 -3.73727,-6.43977 7.73433,2.97656 z m 0,1.43395 v 7.61149 l -2.31273,1.45285 c -1.9631,-1.25441 -3.23879,-3.7207 -3.23879,-5.52318 0,-1.04179 0.18899,-2.4214 0.59058,-4.16009 0.15356,-0.66619 0.47249,-1.33001 0.47249,-1.33001 z m -4.24043,-13.11578 -4.74358,3.08524 3.96875,6.98074 -0.73943,0.83155 c -1.62764,1.77885 -2.78757,3.51754 -3.47499,5.21371 -1.11979,2.95057 -0.90482,6.52245 4.43177,9.24388 l 4.79791,-3.08523 4.03727,2.96239 4.18373,-2.73324 -3.12068,-2.29384 v -11.75034 c 0,-0.41341 0.0167,-0.81265 0.0519,-1.19298 0.0355,-1.63003 0.65204,-3.34509 1.85444,-5.14757 l -0.68977,-0.41814 c 0,0 -1.73162,0.95912 -2.18045,1.08905 -0.12756,0.0378 -0.2008,0.0543 -0.2008,0.0543 l -8.17612,-2.83955"
       style="fill:#211e1e;fill-opacity:1;fill-rule:nonzero;stroke:none;stroke-width:0.60476184" />
    <path
       inkscape:connector-curvature="0"
       id="path12378"
       d="m -2.1076986,157.3614 -4.18373,-2.79939 v -15.4167 l 1.08667,-0.70398 3.09706,2.07178 z m 0.489,-22.62896 -10.0281804,6.65474 v 15.70019 l 6.0216204,3.76086 8.85883,-5.74287 v -17.12469 l -4.85227,-3.24823"
       style="fill:#211e1e;fill-opacity:1;fill-rule:nonzero;stroke:none;stroke-width:0.60476184" />
    <path
       inkscape:connector-curvature="0"
       id="path12380"
       d="m -64.714739,157.04721 -3.45848,-2.2466 v -16.23407 l 0.57168,-0.37326 2.51591,2.60804 c 0.72996,0.78193 1.10322,1.85208 0.10394,3.17264 l -0.28584,0.38742 0.64492,0.42995 4.4294,-5.94367 -3.83409,-4.25223 -2.16392,1.36543 -3.4821,2.1899 h -4.87117 v 0.62838 l 1.01581,0.65911 v 17.80976 l 4.84991,3.14901 8.05326,-5.06015 -0.42286,-0.60004 -3.66637,2.31038"
       style="fill:#211e1e;fill-opacity:1;fill-rule:nonzero;stroke:none;stroke-width:0.60476184" />
  </g>
</svg>
